<?xml version="1.0" standalone="no"?>
<!DOCTYPE svg PUBLIC "-//W3C//DTD SVG 20010904//EN"
 "http://www.w3.org/TR/2001/REC-SVG-20010904/DTD/svg10.dtd">
<svg version="1.0" xmlns="http://www.w3.org/2000/svg"
 width="225.000000pt" height="225.000000pt" viewBox="0 0 225.000000 225.000000"
 preserveAspectRatio="xMidYMid meet">
<metadata>
Created by potrace 1.16, written by Peter Selinger 2001-2019
</metadata>
<g transform="translate(0.000000,225.000000) scale(0.100000,-0.100000)"
fill="#000000" stroke="none">
<path d="M280 2234 c-112 -30 -209 -116 -252 -222 l-23 -57 0 -830 0 -830 24
-60 c33 -82 124 -173 206 -206 l60 -24 830 0 830 0 60 24 c82 33 173 124 206
206 l24 60 0 830 0 830 -24 60 c-33 82 -124 173 -206 206 l-60 24 -810 2
c-690 2 -818 0 -865 -13z m1165 -503 c123 -50 195 -156 195 -290 0 -110 -47
-201 -131 -253 l-50 -32 50 -18 c145 -54 225 -245 176 -423 -30 -112 -100
-182 -232 -233 l-68 -27 -387 -3 -388 -3 0 656 0 656 388 -3 c382 -3 388 -3
447 -27z"/>
<path d="M840 1390 l0 -180 190 0 c104 0 212 5 240 11 95 20 150 105 135 208
-10 67 -29 96 -78 120 -40 19 -60 21 -265 21 l-222 0 0 -180z"/>
<path d="M840 840 l0 -200 238 0 c208 0 242 3 277 19 140 63 150 287 16 358
-43 22 -52 23 -288 23 l-243 0 0 -200z"/>
</g>
</svg>
