<?xml version="1.0" standalone="no"?>
<!DOCTYPE svg PUBLIC "-//W3C//DTD SVG 20010904//EN"
 "http://www.w3.org/TR/2001/REC-SVG-20010904/DTD/svg10.dtd">
<svg version="1.0" xmlns="http://www.w3.org/2000/svg"
 width="400.000000pt" height="400.000000pt" viewBox="0 0 400.000000 400.000000"
 preserveAspectRatio="xMidYMid meet">
<metadata>
Created by potrace 1.16, written by Peter Selinger 2001-2019
</metadata>
<g transform="translate(0.000000,400.000000) scale(0.100000,-0.100000)"
fill="#000000" stroke="none">
<path d="M0 3018 c0 -540 4 -978 8 -972 5 5 14 28 21 51 10 37 89 120 628 659
l616 616 218 -218 218 -218 -5 -86 c-4 -51 -2 -101 5 -127 17 -62 70 -133 129
-172 l52 -35 0 -536 0 -536 -52 -35 c-58 -38 -112 -109 -128 -167 -15 -55 -12
-152 6 -206 22 -64 100 -147 166 -177 80 -35 184 -33 261 5 216 107 239 403
42 543 l-30 21 2 523 c1 288 2 526 2 529 1 3 88 -82 194 -188 l193 -193 -12
-61 c-27 -132 36 -266 157 -333 49 -27 63 -30 149 -30 84 0 101 3 145 27 229
122 225 436 -7 560 -36 19 -59 23 -144 24 l-101 0 -209 210 -209 209 3 86 c3
73 0 93 -21 141 -33 74 -87 132 -153 163 -60 28 -153 41 -199 27 -29 -9 -35
-5 -256 215 l-226 225 199 199 c165 165 205 200 241 210 23 7 46 16 51 21 6 4
-432 8 -972 8 l-982 0 0 -982z"/>
<path d="M2034 3991 c3 -4 19 -11 36 -15 17 -3 50 -19 73 -35 72 -50 1802
-1792 1820 -1833 10 -20 17 -45 17 -56 0 -12 5 -24 10 -27 7 -4 10 327 10 984
l0 991 -986 0 c-557 0 -983 -4 -980 -9z"/>
<path d="M3977 1926 c-16 -51 -31 -72 -122 -165 -192 -196 -1690 -1690 -1710
-1706 -11 -8 -45 -23 -75 -32 -53 -17 -26 -18 934 -21 544 -1 991 -1 993 1 2
2 2 449 1 993 -3 973 -3 988 -21 930z"/>
<path d="M0 987 l0 -987 991 0 c657 0 988 3 984 10 -3 5 -15 10 -27 10 -11 0
-36 8 -56 17 -23 11 -376 355 -944 923 -828 827 -908 909 -919 950 -7 25 -16
49 -21 55 -4 5 -8 -435 -8 -978z"/>
</g>
</svg>
