<?xml version="1.0" standalone="no"?>
<!DOCTYPE svg PUBLIC "-//W3C//DTD SVG 20010904//EN"
 "http://www.w3.org/TR/2001/REC-SVG-20010904/DTD/svg10.dtd">
<svg version="1.0" xmlns="http://www.w3.org/2000/svg"
 width="512.000000pt" height="512.000000pt" viewBox="0 0 512.000000 512.000000"
 preserveAspectRatio="xMidYMid meet">
<metadata>
Created by potrace 1.16, written by Peter Selinger 2001-2019
</metadata>
<g transform="translate(0.000000,512.000000) scale(0.100000,-0.100000)"
fill="#000000" stroke="none">
<path d="M0 2560 l0 -2560 2560 0 2560 0 0 2560 0 2560 -237 -1 c-143 -1 -224
-4 -204 -9 18 -4 50 -24 69 -44 31 -30 36 -42 39 -93 3 -32 -70 -1011 -162
-2177 -184 -2347 -165 -2175 -243 -2215 -70 -35 -1779 -571 -1822 -571 -43 0
-1752 536 -1822 571 -78 40 -59 -132 -243 2215 -92 1166 -165 2145 -162 2177
3 51 8 63 39 93 19 20 51 40 69 44 20 5 -61 8 -203 9 l-238 1 0 -2560z"/>
<path d="M1130 4168 c0 -13 29 -396 65 -852 36 -456 65 -833 65 -837 0 -5 455
-9 1011 -9 l1010 0 -5 -52 c-3 -29 -15 -186 -27 -348 -11 -162 -22 -296 -23
-297 -5 -6 -633 -173 -649 -173 -11 0 -161 38 -334 85 -173 47 -317 85 -319
85 -2 0 -4 99 -4 220 l0 220 -320 0 -321 0 6 -47 c3 -27 19 -228 36 -448 17
-220 33 -403 37 -406 11 -10 1182 -379 1202 -379 20 0 1191 369 1202 379 5 5
138 1644 138 1704 0 16 -56 17 -1025 17 -564 0 -1025 3 -1026 8 0 4 -15 139
-32 300 l-33 292 1083 0 c860 0 1083 3 1083 13 0 6 9 120 20 252 11 132 20
252 20 268 l0 27 -1430 0 -1430 0 0 -22z"/>
</g>
</svg>
