<?xml version="1.0" standalone="no"?>
<!DOCTYPE svg PUBLIC "-//W3C//DTD SVG 20010904//EN"
 "http://www.w3.org/TR/2001/REC-SVG-20010904/DTD/svg10.dtd">
<svg version="1.0" xmlns="http://www.w3.org/2000/svg"
 width="512.000000pt" height="512.000000pt" viewBox="0 0 512.000000 512.000000"
 preserveAspectRatio="xMidYMid meet">
<metadata>
Created by potrace 1.16, written by Peter Selinger 2001-2019
</metadata>
<g transform="translate(0.000000,512.000000) scale(0.100000,-0.100000)"
fill="#000000" stroke="none">
<path d="M0 2560 l0 -2560 2560 0 2560 0 0 2560 0 2560 -2560 0 -2560 0 0
-2560z m4480 0 l0 -1920 -1920 0 -1920 0 0 1920 0 1920 1920 0 1920 0 0 -1920z"/>
<path d="M2348 2163 c-3 -665 -2 -647 -63 -703 -24 -23 -35 -25 -114 -25 -84
0 -91 2 -140 35 -28 19 -65 54 -82 78 -16 23 -34 42 -39 42 -8 0 -249 -145
-263 -160 -21 -19 73 -149 160 -222 113 -95 237 -138 393 -138 244 0 404 106
477 317 15 43 18 122 20 716 l4 667 -175 0 -175 0 -3 -607z"/>
<path d="M3295 2751 c-138 -40 -241 -125 -295 -243 -27 -59 -34 -86 -38 -163
-8 -155 36 -275 134 -372 69 -67 152 -115 339 -197 208 -91 255 -135 255 -236
0 -111 -112 -184 -254 -166 -97 13 -188 78 -254 183 -15 24 -30 43 -35 43 -4
0 -66 -39 -137 -86 l-130 -87 28 -51 c36 -67 153 -184 222 -223 101 -57 172
-75 320 -80 116 -5 148 -2 217 15 113 29 188 67 254 132 100 98 135 200 127
368 -4 84 -10 109 -36 165 -67 145 -183 231 -480 358 -192 83 -239 130 -230
231 8 82 67 128 164 128 89 0 149 -35 204 -119 l16 -24 129 83 c72 46 132 85
134 86 9 8 -74 117 -117 155 -54 47 -146 93 -220 108 -80 17 -247 13 -317 -8z"/>
</g>
</svg>
