<?xml version="1.0" standalone="no"?>
<!DOCTYPE svg PUBLIC "-//W3C//DTD SVG 20010904//EN"
 "http://www.w3.org/TR/2001/REC-SVG-20010904/DTD/svg10.dtd">
<svg version="1.0" xmlns="http://www.w3.org/2000/svg"
 width="200.000000pt" height="200.000000pt" viewBox="0 0 200.000000 200.000000"
 preserveAspectRatio="xMidYMid meet">
<metadata>
Created by potrace 1.16, written by Peter Selinger 2001-2019
</metadata>
<g transform="translate(0.000000,200.000000) scale(0.100000,-0.100000)"
fill="#000000" stroke="none">
<path d="M0 1000 l0 -1000 1000 0 1000 0 0 1000 0 1000 -1000 0 -1000 0 0
-1000z m1198 726 l-3 -104 62 -5 c72 -5 119 -31 148 -79 24 -41 34 -238 15
-307 -22 -83 -93 -130 -200 -132 -25 0 -39 -3 -32 -6 8 -3 12 -33 12 -99 l0
-94 -63 0 c-36 0 -68 5 -75 12 -7 7 -12 31 -12 55 l0 43 -175 0 -175 0 0 -155
0 -155 84 0 c55 0 87 -4 93 -12 6 -7 13 -52 16 -100 5 -97 26 -150 70 -182 24
-18 42 -21 120 -20 96 1 135 13 170 52 38 42 46 90 47 275 0 116 4 177 10 177
26 0 70 -33 92 -67 21 -35 23 -48 23 -183 0 -128 -2 -149 -21 -180 -25 -43
-87 -80 -134 -80 -76 -1 -75 0 -72 -109 l3 -98 -188 -7 c-150 -6 -202 -5 -259
7 -136 29 -219 91 -271 202 l-28 60 -6 510 c-6 542 -2 611 40 693 29 57 76
108 125 137 77 45 134 54 369 54 l218 1 -3 -104z"/>
</g>
</svg>
