<?xml version="1.0" standalone="no"?>
<!DOCTYPE svg PUBLIC "-//W3C//DTD SVG 20010904//EN"
 "http://www.w3.org/TR/2001/REC-SVG-20010904/DTD/svg10.dtd">
<svg version="1.0" xmlns="http://www.w3.org/2000/svg"
 width="900.000000pt" height="900.000000pt" viewBox="0 0 900.000000 900.000000"
 preserveAspectRatio="xMidYMid meet">
<metadata>
Created by potrace 1.16, written by Peter Selinger 2001-2019
</metadata>
<g transform="translate(0.000000,900.000000) scale(0.100000,-0.100000)"
fill="#000000" stroke="none">
<path d="M0 4500 l0 -4500 4500 0 4500 0 0 4500 0 4500 -4500 0 -4500 0 0
-4500z m4320 1911 l0 -420 -107 -59 c-60 -33 -128 -70 -153 -84 -25 -14 -137
-76 -250 -138 -259 -143 -280 -156 -280 -179 0 -23 21 -40 100 -83 60 -32 323
-177 696 -384 102 -57 161 -84 183 -84 30 0 153 66 926 496 45 25 61 45 52 67
-5 15 -366 220 -677 385 -47 24 -91 50 -98 56 -9 9 -12 103 -10 428 l3 416
135 -75 c74 -41 178 -99 230 -128 122 -68 564 -313 885 -490 138 -76 329 -182
425 -235 96 -53 201 -111 233 -129 l57 -33 0 -1089 c0 -599 -3 -1089 -6 -1089
-4 0 -38 18 -76 40 -39 22 -72 40 -75 40 -2 0 -35 17 -71 39 -79 45 -428 239
-489 271 l-43 22 0 437 c0 449 -1 461 -39 461 -8 0 -102 -49 -210 -109 -232
-128 -272 -151 -371 -206 -41 -23 -104 -58 -140 -78 -181 -99 -217 -120 -237
-139 l-23 -21 0 -539 0 -538 27 -6 c18 -5 37 -1 57 11 17 9 137 76 266 148
129 71 291 161 359 199 l123 68 77 -41 c42 -23 92 -51 111 -62 19 -11 78 -43
130 -72 52 -29 112 -62 133 -74 20 -11 96 -53 167 -92 72 -39 130 -74 130 -77
0 -4 -60 -40 -133 -80 -72 -40 -202 -111 -287 -158 -85 -47 -198 -109 -250
-138 -52 -29 -111 -62 -130 -73 -19 -11 -168 -93 -330 -183 -162 -89 -396
-219 -520 -288 -124 -68 -244 -135 -268 -149 l-44 -24 -156 87 c-86 48 -195
109 -242 134 -47 26 -105 58 -130 72 -44 25 -245 137 -915 508 -181 101 -343
191 -360 200 -16 9 -61 33 -98 54 l-68 38 143 80 c79 44 242 134 363 200 121
66 226 125 233 131 9 7 24 4 50 -10 20 -11 64 -35 97 -53 33 -18 134 -75 225
-125 370 -206 430 -237 456 -231 l24 6 0 538 0 539 -22 20 c-13 12 -81 53
-153 93 -71 40 -173 96 -225 125 -158 88 -503 279 -543 300 -29 15 -41 17 -55
9 -16 -10 -17 -46 -20 -450 l-2 -439 -158 -87 c-86 -47 -255 -141 -376 -207
-120 -67 -220 -121 -222 -121 -2 0 -4 490 -4 1089 l0 1089 88 50 c111 63 577
321 902 500 36 19 101 56 145 80 44 25 98 54 120 67 250 138 597 331 660 366
28 16 51 29 53 29 1 0 2 -189 2 -419z"/>
</g>
</svg>
